Length: 5 min 27 sec

Music: Cascada - Pyromania Vivacomet MegaMix

Screenshots from clip: 
http://imagerz.com/QFdCDwoMV1M 
http://imagerz.com/QFdCDwoMV1M

or: 
http://imagerz.com/QEMTW0tvAwJXAFMZFAVR
http://imagerz.com/QEMTW0tvAwJXAFMZFwVR


It's unofficial clip for this mix! Only for fans!



MOVIE information:

General
Complete name                    : Cascada - Pyromania Vivacomet MegaMix 2010 - FullHD 1920x1080 HQ unoffical clip.avi
Format                           : AVI
Format/Info                      : Audio Video Interleave
File size                        : 866 MiB
Duration                         : 5mn 27s
Overall bit rate                 : 22.2 Mbps
Writing library                  : VirtualDub build 30009/release

Video
Format                           : MPEG-4 Visual
Format profile                   : Streaming Video@L1
Format settings, BVOP            : Yes
Format settings, QPel            : No
Format settings, GMC             : 3 warppoints
Format settings, Matrix          : Default
Muxing mode                      : Packed bitstream
Codec ID                         : XVID
Codec ID/Hint                    : XviD
Duration                         : 5mn 27s
Bit rate                         : 21.9 Mbps
Width                            : 1 920 pixels
Height                           : 1 080 pixels
Display aspect ratio             : 16/9
Frame rate                       : 24.000 fps
Resolution                       : 24 bits
Colorimetry                      : 4:2:0
Scan type                        : Progressive
Bits/(Pixel*Frame)               : 0.439
Stream size                      : 853 MiB (99%)
Writing library                  : XviD 50

Audio
Format                           : MPEG Audio
Format version                   : Version 1
Format profile                   : Layer 3
Codec ID                         : 55
Codec ID/Hint                    : MP3
Duration                         : 5mn 27s
Bit rate mode                    : Constant
Bit rate                         : 320 Kbps
Channel(s)                       : 2 channels
Sampling rate                    : 44.1 KHz
Resolution                       : 16 bits
Stream size                      : 12.5 MiB (1%)
Alignment                        : Split accross interleaves
Interleave, duration             : 42 ms (1.00 video frame)
Interleave, preload duration     : 500 ms
Writing library                  : LAME3.98.3


/// Thanks to P and A ///
